<svg width="600" height="580" viewBox="0 0 600 580" fill="none" xmlns="http://www.w3.org/2000/svg">
<rect width="600" height="580" fill="white"/>
<rect x="580.5" y="87.5" width="418" height="295" rx="1.5" transform="rotate(90 580.5 87.5)" stroke="#145DEB"/>
<path d="M316 289C315.448 289 315 289.448 315 290C315 290.552 315.448 291 316 291L316 289ZM416.707 290.707C417.098 290.317 417.098 289.683 416.707 289.293L410.343 282.929C409.953 282.538 409.319 282.538 408.929 282.929C408.538 283.319 408.538 283.953 408.929 284.343L414.586 290L408.929 295.657C408.538 296.047 408.538 296.681 408.929 297.071C409.319 297.462 409.953 297.462 410.343 297.071L416.707 290.707ZM316 291L416 291L416 289L316 289L316 291Z" fill="#21214C"/>
<g filter="url(#filter0_d_106_2830)">
<rect x="224.5" y="239.5" width="122.097" height="85.7273" rx="4.5" fill="#F6F7FB" stroke="#D8D8E5"/>
<path opacity="0.3" d="M347.097 255.786H224" stroke="#8383A8" stroke-width="2" stroke-linejoin="bevel"/>
<rect x="250.513" y="242.73" width="90.9022" height="9.32551" rx="2" fill="white"/>
<ellipse cx="236.31" cy="247.393" rx="1.8938" ry="1.8651" fill="#8383A8"/>
<ellipse cx="229.681" cy="247.393" rx="1.8938" ry="1.8651" fill="#8383A8"/>
<ellipse cx="242.938" cy="247.393" rx="1.8938" ry="1.8651" fill="#8383A8"/>
</g>
<g filter="url(#filter1_d_106_2830)">
<rect x="439.5" y="112.5" width="122.097" height="85.7273" rx="4.5" fill="#F6F7FB" stroke="#D8D8E5"/>
<path opacity="0.3" d="M562.097 128.786H439" stroke="#8383A8" stroke-width="2" stroke-linejoin="bevel"/>
<rect x="465.513" y="115.73" width="90.9022" height="9.32551" rx="2" fill="white"/>
<ellipse cx="451.31" cy="120.393" rx="1.8938" ry="1.8651" fill="#8383A8"/>
<ellipse cx="444.681" cy="120.393" rx="1.8938" ry="1.8651" fill="#8383A8"/>
<ellipse cx="457.938" cy="120.393" rx="1.8938" ry="1.8651" fill="#8383A8"/>
</g>
<g filter="url(#filter2_d_106_2830)">
<rect x="439.5" y="241.5" width="122.097" height="85.7273" rx="4.5" fill="#F6F7FB" stroke="#D8D8E5"/>
<path opacity="0.3" d="M562.097 257.786H439" stroke="#8383A8" stroke-width="2" stroke-linejoin="bevel"/>
<rect x="465.513" y="244.73" width="90.9022" height="9.32551" rx="2" fill="white"/>
<ellipse cx="451.31" cy="249.393" rx="1.8938" ry="1.8651" fill="#8383A8"/>
<ellipse cx="444.681" cy="249.393" rx="1.8938" ry="1.8651" fill="#8383A8"/>
<ellipse cx="457.938" cy="249.393" rx="1.8938" ry="1.8651" fill="#8383A8"/>
</g>
<g filter="url(#filter3_d_106_2830)">
<rect x="439.5" y="370.5" width="122.097" height="85.7273" rx="4.5" fill="#F6F7FB" stroke="#D8D8E5"/>
<path opacity="0.3" d="M562.097 386.786H439" stroke="#8383A8" stroke-width="2" stroke-linejoin="bevel"/>
<rect x="465.513" y="373.73" width="90.9022" height="9.32551" rx="2" fill="white"/>
<ellipse cx="451.31" cy="378.393" rx="1.8938" ry="1.8651" fill="#8383A8"/>
<ellipse cx="444.681" cy="378.393" rx="1.8938" ry="1.8651" fill="#8383A8"/>
<ellipse cx="457.938" cy="378.393" rx="1.8938" ry="1.8651" fill="#8383A8"/>
</g>
<path d="M202.883 348.435L200.769 356H198.981L197.561 350.613L196.076 356L194.299 356.011L192.261 348.435H193.887L195.22 354.309L196.759 348.435H198.45L199.902 354.277L201.246 348.435H202.883ZM209.455 352.868C209.455 353.085 209.441 353.28 209.412 353.453H205.022C205.058 353.887 205.21 354.226 205.477 354.472C205.745 354.717 206.074 354.84 206.464 354.84C207.027 354.84 207.428 354.598 207.667 354.114H209.303C209.13 354.692 208.798 355.169 208.306 355.545C207.815 355.913 207.212 356.098 206.496 356.098C205.918 356.098 205.398 355.971 204.936 355.718C204.48 355.458 204.123 355.093 203.863 354.624C203.61 354.154 203.483 353.612 203.483 352.998C203.483 352.376 203.61 351.831 203.863 351.361C204.115 350.892 204.47 350.53 204.925 350.277C205.38 350.025 205.904 349.898 206.496 349.898C207.067 349.898 207.576 350.021 208.024 350.267C208.48 350.512 208.83 350.863 209.076 351.318C209.329 351.766 209.455 352.283 209.455 352.868ZM207.884 352.434C207.876 352.044 207.735 351.733 207.461 351.502C207.186 351.264 206.85 351.145 206.453 351.145C206.077 351.145 205.759 351.26 205.499 351.491C205.246 351.715 205.091 352.03 205.033 352.434H207.884ZM212.08 350.874C212.275 350.585 212.542 350.35 212.882 350.169C213.229 349.988 213.623 349.898 214.063 349.898C214.576 349.898 215.039 350.025 215.451 350.277C215.87 350.53 216.198 350.892 216.437 351.361C216.683 351.824 216.805 352.362 216.805 352.976C216.805 353.59 216.683 354.136 216.437 354.613C216.198 355.082 215.87 355.447 215.451 355.707C215.039 355.967 214.576 356.098 214.063 356.098C213.615 356.098 213.222 356.011 212.882 355.837C212.55 355.657 212.282 355.426 212.08 355.144V356H210.563V347.98H212.08V350.874ZM215.255 352.976C215.255 352.615 215.18 352.304 215.028 352.044C214.883 351.777 214.688 351.574 214.443 351.437C214.204 351.3 213.944 351.231 213.662 351.231C213.388 351.231 213.128 351.303 212.882 351.448C212.644 351.585 212.448 351.788 212.297 352.055C212.152 352.322 212.08 352.637 212.08 352.998C212.08 353.359 212.152 353.673 212.297 353.941C212.448 354.208 212.644 354.414 212.882 354.559C213.128 354.696 213.388 354.764 213.662 354.764C213.944 354.764 214.204 354.692 214.443 354.548C214.688 354.403 214.883 354.197 215.028 353.93C215.18 353.663 215.255 353.345 215.255 352.976ZM223.102 356.076C222.575 356.076 222.098 355.986 221.672 355.805C221.253 355.624 220.92 355.364 220.675 355.025C220.429 354.685 220.303 354.284 220.295 353.822H221.921C221.943 354.132 222.051 354.378 222.246 354.559C222.449 354.739 222.723 354.829 223.07 354.829C223.424 354.829 223.702 354.746 223.904 354.58C224.107 354.407 224.208 354.183 224.208 353.908C224.208 353.684 224.139 353.5 224.002 353.355C223.865 353.211 223.691 353.099 223.482 353.02C223.279 352.933 222.998 352.839 222.636 352.738C222.145 352.593 221.744 352.452 221.433 352.315C221.13 352.171 220.866 351.957 220.642 351.676C220.425 351.387 220.317 351.004 220.317 350.527C220.317 350.079 220.429 349.689 220.653 349.356C220.877 349.024 221.191 348.771 221.596 348.598C222.001 348.417 222.463 348.327 222.983 348.327C223.764 348.327 224.396 348.518 224.88 348.901C225.371 349.277 225.642 349.804 225.693 350.483H224.024C224.009 350.223 223.897 350.01 223.688 349.844C223.485 349.671 223.214 349.584 222.875 349.584C222.579 349.584 222.34 349.66 222.16 349.811C221.986 349.963 221.899 350.184 221.899 350.473C221.899 350.675 221.964 350.845 222.095 350.982C222.232 351.112 222.398 351.22 222.593 351.307C222.795 351.387 223.077 351.481 223.438 351.589C223.93 351.733 224.331 351.878 224.641 352.022C224.952 352.167 225.22 352.384 225.443 352.673C225.667 352.962 225.779 353.341 225.779 353.811C225.779 354.215 225.675 354.591 225.465 354.938C225.256 355.285 224.949 355.563 224.544 355.772C224.139 355.975 223.659 356.076 223.102 356.076ZM232.677 352.868C232.677 353.085 232.662 353.28 232.633 353.453H228.244C228.28 353.887 228.432 354.226 228.699 354.472C228.966 354.717 229.295 354.84 229.685 354.84C230.249 354.84 230.65 354.598 230.888 354.114H232.525C232.351 354.692 232.019 355.169 231.528 355.545C231.036 355.913 230.433 356.098 229.718 356.098C229.14 356.098 228.62 355.971 228.157 355.718C227.702 355.458 227.344 355.093 227.084 354.624C226.831 354.154 226.705 353.612 226.705 352.998C226.705 352.376 226.831 351.831 227.084 351.361C227.337 350.892 227.691 350.53 228.146 350.277C228.601 350.025 229.125 349.898 229.718 349.898C230.289 349.898 230.798 350.021 231.246 350.267C231.701 350.512 232.052 350.863 232.297 351.318C232.55 351.766 232.677 352.283 232.677 352.868ZM231.105 352.434C231.098 352.044 230.957 351.733 230.682 351.502C230.408 351.264 230.072 351.145 229.674 351.145C229.299 351.145 228.981 351.26 228.721 351.491C228.468 351.715 228.312 352.03 228.255 352.434H231.105ZM235.301 350.928C235.497 350.61 235.749 350.361 236.06 350.18C236.378 349.999 236.739 349.909 237.144 349.909V351.502H236.743C236.266 351.502 235.905 351.614 235.659 351.838C235.421 352.062 235.301 352.452 235.301 353.009V356H233.784V349.996H235.301V350.928ZM240.67 354.602L242.187 349.996H243.802L241.58 356H239.737L237.526 349.996H239.152L240.67 354.602ZM250.236 352.868C250.236 353.085 250.221 353.28 250.192 353.453H245.803C245.839 353.887 245.991 354.226 246.258 354.472C246.525 354.717 246.854 354.84 247.244 354.84C247.808 354.84 248.209 354.598 248.447 354.114H250.084C249.91 354.692 249.578 355.169 249.087 355.545C248.595 355.913 247.992 356.098 247.277 356.098C246.699 356.098 246.179 355.971 245.716 355.718C245.261 355.458 244.903 355.093 244.643 354.624C244.39 354.154 244.264 353.612 244.264 352.998C244.264 352.376 244.39 351.831 244.643 351.361C244.896 350.892 245.25 350.53 245.705 350.277C246.16 350.025 246.684 349.898 247.277 349.898C247.848 349.898 248.357 350.021 248.805 350.267C249.26 350.512 249.611 350.863 249.856 351.318C250.109 351.766 250.236 352.283 250.236 352.868ZM248.664 352.434C248.657 352.044 248.516 351.733 248.241 351.502C247.967 351.264 247.631 351.145 247.233 351.145C246.858 351.145 246.54 351.26 246.28 351.491C246.027 351.715 245.871 352.03 245.814 352.434H248.664ZM252.86 350.928C253.056 350.61 253.308 350.361 253.619 350.18C253.937 349.999 254.298 349.909 254.703 349.909V351.502H254.302C253.825 351.502 253.464 351.614 253.218 351.838C252.98 352.062 252.86 352.452 252.86 353.009V356H251.343V349.996H252.86V350.928Z" fill="#1B1B3E"/>
<path d="M169.91 257.076C169.383 257.076 168.906 256.986 168.48 256.805C168.06 256.624 167.728 256.364 167.482 256.025C167.237 255.685 167.11 255.284 167.103 254.822H168.729C168.75 255.132 168.859 255.378 169.054 255.559C169.256 255.739 169.531 255.829 169.878 255.829C170.232 255.829 170.51 255.746 170.712 255.58C170.914 255.407 171.016 255.183 171.016 254.908C171.016 254.684 170.947 254.5 170.81 254.355C170.672 254.211 170.499 254.099 170.289 254.02C170.087 253.933 169.805 253.839 169.444 253.738C168.953 253.593 168.552 253.452 168.241 253.315C167.938 253.171 167.674 252.957 167.45 252.676C167.233 252.387 167.125 252.004 167.125 251.527C167.125 251.079 167.237 250.689 167.461 250.356C167.685 250.024 167.999 249.771 168.404 249.598C168.808 249.417 169.271 249.327 169.791 249.327C170.571 249.327 171.204 249.518 171.688 249.901C172.179 250.277 172.45 250.804 172.5 251.483H170.831C170.817 251.223 170.705 251.01 170.495 250.844C170.293 250.671 170.022 250.584 169.683 250.584C169.386 250.584 169.148 250.66 168.967 250.811C168.794 250.963 168.707 251.184 168.707 251.473C168.707 251.675 168.772 251.845 168.902 251.982C169.04 252.112 169.206 252.22 169.401 252.307C169.603 252.387 169.885 252.481 170.246 252.589C170.737 252.733 171.138 252.878 171.449 253.022C171.76 253.167 172.027 253.384 172.251 253.673C172.475 253.962 172.587 254.341 172.587 254.811C172.587 255.215 172.482 255.591 172.273 255.938C172.063 256.285 171.756 256.563 171.352 256.772C170.947 256.975 170.467 257.076 169.91 257.076ZM176.515 257.076C175.987 257.076 175.51 256.986 175.084 256.805C174.665 256.624 174.333 256.364 174.087 256.025C173.841 255.685 173.715 255.284 173.708 254.822H175.333C175.355 255.132 175.463 255.378 175.658 255.559C175.861 255.739 176.135 255.829 176.482 255.829C176.836 255.829 177.114 255.746 177.317 255.58C177.519 255.407 177.62 255.183 177.62 254.908C177.62 254.684 177.551 254.5 177.414 254.355C177.277 254.211 177.104 254.099 176.894 254.02C176.692 253.933 176.41 253.839 176.049 253.738C175.557 253.593 175.156 253.452 174.846 253.315C174.542 253.171 174.278 252.957 174.054 252.676C173.838 252.387 173.729 252.004 173.729 251.527C173.729 251.079 173.841 250.689 174.065 250.356C174.289 250.024 174.604 249.771 175.008 249.598C175.413 249.417 175.875 249.327 176.395 249.327C177.176 249.327 177.808 249.518 178.292 249.901C178.783 250.277 179.054 250.804 179.105 251.483H177.436C177.421 251.223 177.309 251.01 177.1 250.844C176.898 250.671 176.627 250.584 176.287 250.584C175.991 250.584 175.752 250.66 175.572 250.811C175.398 250.963 175.312 251.184 175.312 251.473C175.312 251.675 175.377 251.845 175.507 251.982C175.644 252.112 175.81 252.22 176.005 252.307C176.208 252.387 176.489 252.481 176.851 252.589C177.342 252.733 177.743 252.878 178.054 253.022C178.364 253.167 178.632 253.384 178.856 253.673C179.08 253.962 179.192 254.341 179.192 254.811C179.192 255.215 179.087 255.591 178.877 255.938C178.668 256.285 178.361 256.563 177.956 256.772C177.551 256.975 177.071 257.076 176.515 257.076ZM184.409 257L182.74 254.052H182.024V257H180.507V249.435H183.347C183.932 249.435 184.431 249.54 184.842 249.749C185.254 249.952 185.561 250.23 185.764 250.584C185.973 250.931 186.078 251.321 186.078 251.754C186.078 252.253 185.933 252.704 185.644 253.109C185.355 253.507 184.925 253.781 184.355 253.933L186.165 257H184.409ZM182.024 252.914H183.293C183.704 252.914 184.011 252.816 184.214 252.621C184.416 252.419 184.517 252.141 184.517 251.787C184.517 251.44 184.416 251.173 184.214 250.985C184.011 250.79 183.704 250.692 183.293 250.692H182.024V252.914ZM192.122 249.435V250.66H188.968V252.6H191.385V253.803H188.968V257H187.45V249.435H192.122ZM158.829 261.863C159.024 261.588 159.292 261.361 159.631 261.18C159.978 260.992 160.372 260.898 160.813 260.898C161.326 260.898 161.788 261.025 162.2 261.277C162.619 261.53 162.948 261.892 163.186 262.361C163.432 262.824 163.555 263.362 163.555 263.976C163.555 264.59 163.432 265.136 163.186 265.613C162.948 266.082 162.619 266.447 162.2 266.707C161.788 266.967 161.326 267.098 160.813 267.098C160.372 267.098 159.982 267.007 159.642 266.827C159.31 266.646 159.039 266.418 158.829 266.144V269.861H157.312V260.996H158.829V261.863ZM162.005 263.976C162.005 263.615 161.929 263.304 161.777 263.044C161.633 262.777 161.438 262.574 161.192 262.437C160.954 262.3 160.694 262.231 160.412 262.231C160.137 262.231 159.877 262.303 159.631 262.448C159.393 262.585 159.198 262.788 159.046 263.055C158.902 263.322 158.829 263.637 158.829 263.998C158.829 264.359 158.902 264.673 159.046 264.941C159.198 265.208 159.393 265.414 159.631 265.559C159.877 265.696 160.137 265.764 160.412 265.764C160.694 265.764 160.954 265.692 161.192 265.548C161.438 265.403 161.633 265.197 161.777 264.93C161.929 264.663 162.005 264.345 162.005 263.976ZM164.267 263.976C164.267 263.369 164.386 262.831 164.625 262.361C164.871 261.892 165.199 261.53 165.611 261.277C166.03 261.025 166.496 260.898 167.009 260.898C167.457 260.898 167.847 260.988 168.18 261.169C168.519 261.35 168.79 261.577 168.993 261.852V260.996H170.521V267H168.993V266.122C168.798 266.404 168.527 266.639 168.18 266.827C167.84 267.007 167.446 267.098 166.998 267.098C166.493 267.098 166.03 266.967 165.611 266.707C165.199 266.447 164.871 266.082 164.625 265.613C164.386 265.136 164.267 264.59 164.267 263.976ZM168.993 263.998C168.993 263.629 168.92 263.315 168.776 263.055C168.631 262.788 168.436 262.585 168.191 262.448C167.945 262.303 167.681 262.231 167.399 262.231C167.118 262.231 166.858 262.3 166.619 262.437C166.381 262.574 166.186 262.777 166.034 263.044C165.889 263.304 165.817 263.615 165.817 263.976C165.817 264.337 165.889 264.655 166.034 264.93C166.186 265.197 166.381 265.403 166.619 265.548C166.865 265.692 167.125 265.764 167.399 265.764C167.681 265.764 167.945 265.696 168.191 265.559C168.436 265.414 168.631 265.212 168.776 264.952C168.92 264.684 168.993 264.366 168.993 263.998ZM177.747 260.996L174.03 269.84H172.415L173.715 266.848L171.309 260.996H173.011L174.561 265.19L176.132 260.996H177.747ZM180.082 258.98V267H178.565V258.98H180.082ZM184.248 267.098C183.67 267.098 183.149 266.971 182.687 266.718C182.224 266.458 181.86 266.093 181.592 265.624C181.332 265.154 181.202 264.612 181.202 263.998C181.202 263.384 181.336 262.842 181.603 262.372C181.878 261.902 182.25 261.541 182.719 261.288C183.189 261.028 183.713 260.898 184.291 260.898C184.869 260.898 185.393 261.028 185.862 261.288C186.332 261.541 186.701 261.902 186.968 262.372C187.243 262.842 187.38 263.384 187.38 263.998C187.38 264.612 187.239 265.154 186.957 265.624C186.683 266.093 186.307 266.458 185.83 266.718C185.36 266.971 184.833 267.098 184.248 267.098ZM184.248 265.775C184.522 265.775 184.779 265.71 185.017 265.58C185.263 265.443 185.458 265.241 185.602 264.973C185.747 264.706 185.819 264.381 185.819 263.998C185.819 263.427 185.667 262.99 185.364 262.686C185.068 262.376 184.703 262.22 184.269 262.22C183.836 262.22 183.471 262.376 183.175 262.686C182.886 262.99 182.741 263.427 182.741 263.998C182.741 264.569 182.882 265.009 183.164 265.32C183.453 265.624 183.814 265.775 184.248 265.775ZM188.103 263.976C188.103 263.369 188.222 262.831 188.46 262.361C188.706 261.892 189.035 261.53 189.447 261.277C189.866 261.025 190.332 260.898 190.845 260.898C191.293 260.898 191.683 260.988 192.015 261.169C192.355 261.35 192.626 261.577 192.828 261.852V260.996H194.356V267H192.828V266.122C192.633 266.404 192.362 266.639 192.015 266.827C191.676 267.007 191.282 267.098 190.834 267.098C190.328 267.098 189.866 266.967 189.447 266.707C189.035 266.447 188.706 266.082 188.46 265.613C188.222 265.136 188.103 264.59 188.103 263.976ZM192.828 263.998C192.828 263.629 192.756 263.315 192.611 263.055C192.467 262.788 192.272 262.585 192.026 262.448C191.78 262.303 191.517 262.231 191.235 262.231C190.953 262.231 190.693 262.3 190.455 262.437C190.216 262.574 190.021 262.777 189.869 263.044C189.725 263.304 189.653 263.615 189.653 263.976C189.653 264.337 189.725 264.655 189.869 264.93C190.021 265.197 190.216 265.403 190.455 265.548C190.7 265.692 190.96 265.764 191.235 265.764C191.517 265.764 191.78 265.696 192.026 265.559C192.272 265.414 192.467 265.212 192.611 264.952C192.756 264.684 192.828 264.366 192.828 263.998ZM195.448 263.976C195.448 263.369 195.567 262.831 195.806 262.361C196.051 261.892 196.384 261.53 196.803 261.277C197.222 261.025 197.688 260.898 198.201 260.898C198.591 260.898 198.963 260.985 199.317 261.158C199.671 261.324 199.953 261.548 200.163 261.83V258.98H201.702V267H200.163V266.111C199.975 266.408 199.711 266.646 199.371 266.827C199.032 267.007 198.638 267.098 198.19 267.098C197.684 267.098 197.222 266.967 196.803 266.707C196.384 266.447 196.051 266.082 195.806 265.613C195.567 265.136 195.448 264.59 195.448 263.976ZM200.173 263.998C200.173 263.629 200.101 263.315 199.957 263.055C199.812 262.788 199.617 262.585 199.371 262.448C199.126 262.303 198.862 262.231 198.58 262.231C198.298 262.231 198.038 262.3 197.8 262.437C197.561 262.574 197.366 262.777 197.215 263.044C197.07 263.304 196.998 263.615 196.998 263.976C196.998 264.337 197.07 264.655 197.215 264.93C197.366 265.197 197.561 265.403 197.8 265.548C198.046 265.692 198.306 265.764 198.58 265.764C198.862 265.764 199.126 265.696 199.371 265.559C199.617 265.414 199.812 265.212 199.957 264.952C200.101 264.684 200.173 264.366 200.173 263.998Z" fill="#E55578"/>
<path d="M332.907 139L331.238 136.052H330.523V139H329.006V131.435H331.845C332.43 131.435 332.929 131.54 333.341 131.749C333.753 131.952 334.06 132.23 334.262 132.584C334.472 132.931 334.576 133.321 334.576 133.754C334.576 134.253 334.432 134.704 334.143 135.109C333.854 135.507 333.424 135.781 332.853 135.933L334.663 139H332.907ZM330.523 134.914H331.791C332.203 134.914 332.51 134.816 332.712 134.621C332.914 134.419 333.016 134.141 333.016 133.787C333.016 133.44 332.914 133.173 332.712 132.985C332.51 132.79 332.203 132.692 331.791 132.692H330.523V134.914ZM335.58 135.207C335.58 134.462 335.746 133.798 336.079 133.212C336.418 132.62 336.877 132.161 337.455 131.836C338.04 131.504 338.694 131.337 339.417 131.337C340.262 131.337 341.003 131.554 341.639 131.988C342.275 132.421 342.719 133.021 342.972 133.787H341.227C341.053 133.426 340.808 133.155 340.49 132.974C340.179 132.793 339.818 132.703 339.406 132.703C338.965 132.703 338.572 132.808 338.225 133.017C337.885 133.22 337.618 133.509 337.423 133.884C337.235 134.26 337.141 134.701 337.141 135.207C337.141 135.705 337.235 136.146 337.423 136.529C337.618 136.905 337.885 137.197 338.225 137.407C338.572 137.609 338.965 137.71 339.406 137.71C339.818 137.71 340.179 137.62 340.49 137.439C340.808 137.251 341.053 136.977 341.227 136.616H342.972C342.719 137.389 342.275 137.992 341.639 138.426C341.01 138.852 340.269 139.065 339.417 139.065C338.694 139.065 338.04 138.902 337.455 138.577C336.877 138.245 336.418 137.786 336.079 137.201C335.746 136.616 335.58 135.951 335.58 135.207ZM345.785 132.66V134.556H348.332V135.759H345.785V137.764H348.657V139H344.268V131.424H348.657V132.66H345.785ZM354.136 133.863C354.331 133.588 354.598 133.361 354.938 133.18C355.285 132.992 355.679 132.898 356.119 132.898C356.632 132.898 357.095 133.025 357.507 133.277C357.926 133.53 358.254 133.892 358.493 134.361C358.739 134.824 358.861 135.362 358.861 135.976C358.861 136.59 358.739 137.136 358.493 137.613C358.254 138.082 357.926 138.447 357.507 138.707C357.095 138.967 356.632 139.098 356.119 139.098C355.679 139.098 355.288 139.007 354.949 138.827C354.616 138.646 354.346 138.418 354.136 138.144V141.861H352.619V132.996H354.136V133.863ZM357.312 135.976C357.312 135.615 357.236 135.304 357.084 135.044C356.939 134.777 356.744 134.574 356.499 134.437C356.26 134.3 356 134.231 355.718 134.231C355.444 134.231 355.184 134.303 354.938 134.448C354.7 134.585 354.504 134.788 354.353 135.055C354.208 135.322 354.136 135.637 354.136 135.998C354.136 136.359 354.208 136.673 354.353 136.941C354.504 137.208 354.7 137.414 354.938 137.559C355.184 137.696 355.444 137.764 355.718 137.764C356 137.764 356.26 137.692 356.499 137.548C356.744 137.403 356.939 137.197 357.084 136.93C357.236 136.663 357.312 136.345 357.312 135.976ZM359.574 135.976C359.574 135.369 359.693 134.831 359.931 134.361C360.177 133.892 360.506 133.53 360.918 133.277C361.337 133.025 361.803 132.898 362.316 132.898C362.764 132.898 363.154 132.988 363.486 133.169C363.826 133.35 364.097 133.577 364.299 133.852V132.996H365.827V139H364.299V138.122C364.104 138.404 363.833 138.639 363.486 138.827C363.147 139.007 362.753 139.098 362.305 139.098C361.799 139.098 361.337 138.967 360.918 138.707C360.506 138.447 360.177 138.082 359.931 137.613C359.693 137.136 359.574 136.59 359.574 135.976ZM364.299 135.998C364.299 135.629 364.227 135.315 364.083 135.055C363.938 134.788 363.743 134.585 363.497 134.448C363.252 134.303 362.988 134.231 362.706 134.231C362.424 134.231 362.164 134.3 361.926 134.437C361.687 134.574 361.492 134.777 361.34 135.044C361.196 135.304 361.124 135.615 361.124 135.976C361.124 136.337 361.196 136.655 361.34 136.93C361.492 137.197 361.687 137.403 361.926 137.548C362.171 137.692 362.431 137.764 362.706 137.764C362.988 137.764 363.252 137.696 363.497 137.559C363.743 137.414 363.938 137.212 364.083 136.952C364.227 136.684 364.299 136.366 364.299 135.998ZM373.054 132.996L369.336 141.84H367.721L369.022 138.848L366.616 132.996H368.317L369.867 137.19L371.439 132.996H373.054ZM375.389 130.98V139H373.872V130.98H375.389ZM379.554 139.098C378.976 139.098 378.456 138.971 377.993 138.718C377.531 138.458 377.166 138.093 376.899 137.624C376.639 137.154 376.509 136.612 376.509 135.998C376.509 135.384 376.642 134.842 376.91 134.372C377.184 133.902 377.556 133.541 378.026 133.288C378.496 133.028 379.019 132.898 379.598 132.898C380.176 132.898 380.699 133.028 381.169 133.288C381.639 133.541 382.007 133.902 382.275 134.372C382.549 134.842 382.686 135.384 382.686 135.998C382.686 136.612 382.546 137.154 382.264 137.624C381.989 138.093 381.613 138.458 381.137 138.718C380.667 138.971 380.139 139.098 379.554 139.098ZM379.554 137.775C379.829 137.775 380.085 137.71 380.324 137.58C380.569 137.443 380.764 137.241 380.909 136.973C381.053 136.706 381.126 136.381 381.126 135.998C381.126 135.427 380.974 134.99 380.671 134.686C380.374 134.376 380.009 134.22 379.576 134.22C379.142 134.22 378.777 134.376 378.481 134.686C378.192 134.99 378.048 135.427 378.048 135.998C378.048 136.569 378.189 137.009 378.47 137.32C378.759 137.624 379.121 137.775 379.554 137.775ZM383.409 135.976C383.409 135.369 383.528 134.831 383.767 134.361C384.013 133.892 384.341 133.53 384.753 133.277C385.172 133.025 385.638 132.898 386.151 132.898C386.599 132.898 386.989 132.988 387.322 133.169C387.661 133.35 387.932 133.577 388.135 133.852V132.996H389.663V139H388.135V138.122C387.94 138.404 387.669 138.639 387.322 138.827C386.982 139.007 386.588 139.098 386.14 139.098C385.635 139.098 385.172 138.967 384.753 138.707C384.341 138.447 384.013 138.082 383.767 137.613C383.528 137.136 383.409 136.59 383.409 135.976ZM388.135 135.998C388.135 135.629 388.062 135.315 387.918 135.055C387.773 134.788 387.578 134.585 387.333 134.448C387.087 134.303 386.823 134.231 386.541 134.231C386.26 134.231 386 134.3 385.761 134.437C385.523 134.574 385.328 134.777 385.176 135.044C385.031 135.304 384.959 135.615 384.959 135.976C384.959 136.337 385.031 136.655 385.176 136.93C385.328 137.197 385.523 137.403 385.761 137.548C386.007 137.692 386.267 137.764 386.541 137.764C386.823 137.764 387.087 137.696 387.333 137.559C387.578 137.414 387.773 137.212 387.918 136.952C388.062 136.684 388.135 136.366 388.135 135.998ZM390.755 135.976C390.755 135.369 390.874 134.831 391.112 134.361C391.358 133.892 391.69 133.53 392.109 133.277C392.528 133.025 392.994 132.898 393.507 132.898C393.898 132.898 394.27 132.985 394.624 133.158C394.978 133.324 395.26 133.548 395.469 133.83V130.98H397.008V139H395.469V138.111C395.281 138.408 395.018 138.646 394.678 138.827C394.338 139.007 393.945 139.098 393.497 139.098C392.991 139.098 392.528 138.967 392.109 138.707C391.69 138.447 391.358 138.082 391.112 137.613C390.874 137.136 390.755 136.59 390.755 135.976ZM395.48 135.998C395.48 135.629 395.408 135.315 395.263 135.055C395.119 134.788 394.924 134.585 394.678 134.448C394.432 134.303 394.169 134.231 393.887 134.231C393.605 134.231 393.345 134.3 393.106 134.437C392.868 134.574 392.673 134.777 392.521 135.044C392.377 135.304 392.304 135.615 392.304 135.976C392.304 136.337 392.377 136.655 392.521 136.93C392.673 137.197 392.868 137.403 393.106 137.548C393.352 137.692 393.612 137.764 393.887 137.764C394.169 137.764 394.432 137.696 394.678 137.559C394.924 137.414 395.119 137.212 395.263 136.952C395.408 136.684 395.48 136.366 395.48 135.998Z" fill="#E55578"/>
<path d="M402.757 358.076C402.229 358.076 401.753 357.986 401.326 357.805C400.907 357.624 400.575 357.364 400.329 357.025C400.083 356.685 399.957 356.284 399.95 355.822H401.575C401.597 356.132 401.706 356.378 401.901 356.559C402.103 356.739 402.378 356.829 402.724 356.829C403.078 356.829 403.357 356.746 403.559 356.58C403.761 356.407 403.862 356.183 403.862 355.908C403.862 355.684 403.794 355.5 403.656 355.355C403.519 355.211 403.346 355.099 403.136 355.02C402.934 354.933 402.652 354.839 402.291 354.738C401.799 354.593 401.398 354.452 401.088 354.315C400.784 354.171 400.521 353.957 400.297 353.676C400.08 353.387 399.971 353.004 399.971 352.527C399.971 352.079 400.083 351.689 400.307 351.356C400.531 351.024 400.846 350.771 401.25 350.598C401.655 350.417 402.117 350.327 402.638 350.327C403.418 350.327 404.05 350.518 404.534 350.901C405.026 351.277 405.297 351.804 405.347 352.483H403.678C403.664 352.223 403.552 352.01 403.342 351.844C403.14 351.671 402.869 351.584 402.529 351.584C402.233 351.584 401.995 351.66 401.814 351.811C401.641 351.963 401.554 352.184 401.554 352.473C401.554 352.675 401.619 352.845 401.749 352.982C401.886 353.112 402.052 353.22 402.247 353.307C402.45 353.387 402.732 353.481 403.093 353.589C403.584 353.733 403.985 353.878 404.296 354.022C404.607 354.167 404.874 354.384 405.098 354.673C405.322 354.962 405.434 355.341 405.434 355.811C405.434 356.215 405.329 356.591 405.12 356.938C404.91 357.285 404.603 357.563 404.198 357.772C403.794 357.975 403.313 358.076 402.757 358.076ZM412.331 354.868C412.331 355.085 412.317 355.28 412.288 355.453H407.898C407.934 355.887 408.086 356.226 408.353 356.472C408.621 356.717 408.949 356.84 409.34 356.84C409.903 356.84 410.304 356.598 410.543 356.114H412.179C412.006 356.692 411.673 357.169 411.182 357.545C410.691 357.913 410.087 358.098 409.372 358.098C408.794 358.098 408.274 357.971 407.811 357.718C407.356 357.458 406.999 357.093 406.738 356.624C406.486 356.154 406.359 355.612 406.359 354.998C406.359 354.376 406.486 353.831 406.738 353.361C406.991 352.892 407.345 352.53 407.801 352.277C408.256 352.025 408.78 351.898 409.372 351.898C409.943 351.898 410.452 352.021 410.9 352.267C411.356 352.512 411.706 352.863 411.952 353.318C412.205 353.766 412.331 354.283 412.331 354.868ZM410.759 354.434C410.752 354.044 410.611 353.733 410.337 353.502C410.062 353.264 409.726 353.145 409.329 353.145C408.953 353.145 408.635 353.26 408.375 353.491C408.122 353.715 407.967 354.03 407.909 354.434H410.759ZM414.956 352.928C415.151 352.61 415.404 352.361 415.714 352.18C416.032 351.999 416.394 351.909 416.798 351.909V353.502H416.397C415.92 353.502 415.559 353.614 415.313 353.838C415.075 354.062 414.956 354.452 414.956 355.009V358H413.438V351.996H414.956V352.928ZM420.324 356.602L421.841 351.996H423.456L421.234 358H419.392L417.181 351.996H418.807L420.324 356.602ZM425.078 351.28C424.811 351.28 424.587 351.197 424.406 351.031C424.232 350.858 424.146 350.645 424.146 350.392C424.146 350.139 424.232 349.929 424.406 349.763C424.587 349.59 424.811 349.503 425.078 349.503C425.345 349.503 425.566 349.59 425.739 349.763C425.92 349.929 426.01 350.139 426.01 350.392C426.01 350.645 425.92 350.858 425.739 351.031C425.566 351.197 425.345 351.28 425.078 351.28ZM425.826 351.996V358H424.308V351.996H425.826ZM426.935 354.998C426.935 354.376 427.061 353.835 427.314 353.372C427.567 352.902 427.917 352.541 428.365 352.288C428.813 352.028 429.326 351.898 429.904 351.898C430.649 351.898 431.263 352.086 431.747 352.462C432.238 352.83 432.567 353.35 432.733 354.022H431.097C431.01 353.762 430.862 353.56 430.652 353.415C430.45 353.264 430.197 353.188 429.893 353.188C429.46 353.188 429.117 353.347 428.864 353.665C428.611 353.975 428.485 354.42 428.485 354.998C428.485 355.569 428.611 356.013 428.864 356.331C429.117 356.642 429.46 356.797 429.893 356.797C430.508 356.797 430.909 356.522 431.097 355.973H432.733C432.567 356.624 432.238 357.14 431.747 357.523C431.255 357.906 430.641 358.098 429.904 358.098C429.326 358.098 428.813 357.971 428.365 357.718C427.917 357.458 427.567 357.097 427.314 356.634C427.061 356.165 426.935 355.619 426.935 354.998ZM439.426 354.868C439.426 355.085 439.412 355.28 439.383 355.453H434.993C435.03 355.887 435.181 356.226 435.449 356.472C435.716 356.717 436.045 356.84 436.435 356.84C436.999 356.84 437.4 356.598 437.638 356.114H439.275C439.101 356.692 438.769 357.169 438.277 357.545C437.786 357.913 437.183 358.098 436.467 358.098C435.889 358.098 435.369 357.971 434.907 357.718C434.452 357.458 434.094 357.093 433.834 356.624C433.581 356.154 433.454 355.612 433.454 354.998C433.454 354.376 433.581 353.831 433.834 353.361C434.087 352.892 434.441 352.53 434.896 352.277C435.351 352.025 435.875 351.898 436.467 351.898C437.038 351.898 437.548 352.021 437.996 352.267C438.451 352.512 438.801 352.863 439.047 353.318C439.3 353.766 439.426 354.283 439.426 354.868ZM437.855 354.434C437.848 354.044 437.707 353.733 437.432 353.502C437.157 353.264 436.822 353.145 436.424 353.145C436.048 353.145 435.73 353.26 435.47 353.491C435.217 353.715 435.062 354.03 435.004 354.434H437.855ZM445.728 358.076C445.201 358.076 444.724 357.986 444.298 357.805C443.879 357.624 443.546 357.364 443.301 357.025C443.055 356.685 442.928 356.284 442.921 355.822H444.547C444.569 356.132 444.677 356.378 444.872 356.559C445.074 356.739 445.349 356.829 445.696 356.829C446.05 356.829 446.328 356.746 446.53 356.58C446.733 356.407 446.834 356.183 446.834 355.908C446.834 355.684 446.765 355.5 446.628 355.355C446.491 355.211 446.317 355.099 446.108 355.02C445.905 354.933 445.624 354.839 445.262 354.738C444.771 354.593 444.37 354.452 444.059 354.315C443.756 354.171 443.492 353.957 443.268 353.676C443.051 353.387 442.943 353.004 442.943 352.527C442.943 352.079 443.055 351.689 443.279 351.356C443.503 351.024 443.817 350.771 444.222 350.598C444.626 350.417 445.089 350.327 445.609 350.327C446.389 350.327 447.022 350.518 447.506 350.901C447.997 351.277 448.268 351.804 448.319 352.483H446.65C446.635 352.223 446.523 352.01 446.314 351.844C446.111 351.671 445.84 351.584 445.501 351.584C445.204 351.584 444.966 351.66 444.785 351.811C444.612 351.963 444.525 352.184 444.525 352.473C444.525 352.675 444.59 352.845 444.72 352.982C444.858 353.112 445.024 353.22 445.219 353.307C445.421 353.387 445.703 353.481 446.064 353.589C446.556 353.733 446.957 353.878 447.267 354.022C447.578 354.167 447.845 354.384 448.069 354.673C448.293 354.962 448.405 355.341 448.405 355.811C448.405 356.215 448.301 356.591 448.091 356.938C447.881 357.285 447.574 357.563 447.17 357.772C446.765 357.975 446.285 358.076 445.728 358.076ZM455.302 354.868C455.302 355.085 455.288 355.28 455.259 355.453H450.87C450.906 355.887 451.058 356.226 451.325 356.472C451.592 356.717 451.921 356.84 452.311 356.84C452.875 356.84 453.276 356.598 453.514 356.114H455.151C454.977 356.692 454.645 357.169 454.154 357.545C453.662 357.913 453.059 358.098 452.344 358.098C451.766 358.098 451.245 357.971 450.783 357.718C450.328 357.458 449.97 357.093 449.71 356.624C449.457 356.154 449.331 355.612 449.331 354.998C449.331 354.376 449.457 353.831 449.71 353.361C449.963 352.892 450.317 352.53 450.772 352.277C451.227 352.025 451.751 351.898 452.344 351.898C452.914 351.898 453.424 352.021 453.872 352.267C454.327 352.512 454.677 352.863 454.923 353.318C455.176 353.766 455.302 354.283 455.302 354.868ZM453.731 354.434C453.724 354.044 453.583 353.733 453.308 353.502C453.034 353.264 452.698 353.145 452.3 353.145C451.925 353.145 451.607 353.26 451.347 353.491C451.094 353.715 450.938 354.03 450.88 354.434H453.731ZM457.927 352.928C458.122 352.61 458.375 352.361 458.686 352.18C459.004 351.999 459.365 351.909 459.77 351.909V353.502H459.369C458.892 353.502 458.531 353.614 458.285 353.838C458.047 354.062 457.927 354.452 457.927 355.009V358H456.41V351.996H457.927V352.928ZM463.295 356.602L464.813 351.996H466.428L464.206 358H462.363L460.152 351.996H461.778L463.295 356.602ZM472.861 354.868C472.861 355.085 472.847 355.28 472.818 355.453H468.429C468.465 355.887 468.617 356.226 468.884 356.472C469.151 356.717 469.48 356.84 469.87 356.84C470.434 356.84 470.835 356.598 471.073 356.114H472.71C472.536 356.692 472.204 357.169 471.713 357.545C471.221 357.913 470.618 358.098 469.903 358.098C469.325 358.098 468.804 357.971 468.342 357.718C467.887 357.458 467.529 357.093 467.269 356.624C467.016 356.154 466.89 355.612 466.89 354.998C466.89 354.376 467.016 353.831 467.269 353.361C467.522 352.892 467.876 352.53 468.331 352.277C468.786 352.025 469.31 351.898 469.903 351.898C470.473 351.898 470.983 352.021 471.431 352.267C471.886 352.512 472.236 352.863 472.482 353.318C472.735 353.766 472.861 354.283 472.861 354.868ZM471.29 354.434C471.283 354.044 471.142 353.733 470.867 353.502C470.593 353.264 470.257 353.145 469.859 353.145C469.484 353.145 469.166 353.26 468.906 353.491C468.653 353.715 468.497 354.03 468.44 354.434H471.29ZM475.486 352.928C475.681 352.61 475.934 352.361 476.245 352.18C476.563 351.999 476.924 351.909 477.329 351.909V353.502H476.928C476.451 353.502 476.09 353.614 475.844 353.838C475.606 354.062 475.486 354.452 475.486 355.009V358H473.969V351.996H475.486V352.928Z" fill="#1B1B3E"/>
<path d="M65.7499 313.436V326H63.2299V320.654H57.8479V326H55.3279V313.436H57.8479V318.602H63.2299V313.436H65.7499ZM67.5823 320.978C67.5823 319.97 67.7803 319.076 68.1763 318.296C68.5843 317.516 69.1303 316.916 69.8143 316.496C70.5103 316.076 71.2843 315.866 72.1363 315.866C72.8803 315.866 73.5283 316.016 74.0803 316.316C74.6443 316.616 75.0943 316.994 75.4303 317.45V316.028H77.9683V326H75.4303V324.542C75.1063 325.01 74.6563 325.4 74.0803 325.712C73.5163 326.012 72.8623 326.162 72.1183 326.162C71.2783 326.162 70.5103 325.946 69.8143 325.514C69.1303 325.082 68.5843 324.476 68.1763 323.696C67.7803 322.904 67.5823 321.998 67.5823 320.978ZM75.4303 321.014C75.4303 320.402 75.3103 319.88 75.0703 319.448C74.8303 319.004 74.5063 318.668 74.0983 318.44C73.6903 318.2 73.2523 318.08 72.7843 318.08C72.3163 318.08 71.8843 318.194 71.4883 318.422C71.0923 318.65 70.7683 318.986 70.5163 319.43C70.2763 319.862 70.1563 320.378 70.1563 320.978C70.1563 321.578 70.2763 322.106 70.5163 322.562C70.7683 323.006 71.0923 323.348 71.4883 323.588C71.8963 323.828 72.3283 323.948 72.7843 323.948C73.2523 323.948 73.6903 323.834 74.0983 323.606C74.5063 323.366 74.8303 323.03 75.0703 322.598C75.3103 322.154 75.4303 321.626 75.4303 321.014ZM79.7815 321.014C79.7815 319.982 79.9915 319.082 80.4115 318.314C80.8315 317.534 81.4135 316.934 82.1575 316.514C82.9015 316.082 83.7535 315.866 84.7135 315.866C85.9495 315.866 86.9695 316.178 87.7735 316.802C88.5895 317.414 89.1355 318.278 89.4115 319.394H86.6935C86.5495 318.962 86.3035 318.626 85.9555 318.386C85.6195 318.134 85.1995 318.008 84.6955 318.008C83.9755 318.008 83.4055 318.272 82.9855 318.8C82.5655 319.316 82.3555 320.054 82.3555 321.014C82.3555 321.962 82.5655 322.7 82.9855 323.228C83.4055 323.744 83.9755 324.002 84.6955 324.002C85.7155 324.002 86.3815 323.546 86.6935 322.634H89.4115C89.1355 323.714 88.5895 324.572 87.7735 325.208C86.9575 325.844 85.9375 326.162 84.7135 326.162C83.7535 326.162 82.9015 325.952 82.1575 325.532C81.4135 325.1 80.8315 324.5 80.4115 323.732C79.9915 322.952 79.7815 322.046 79.7815 321.014ZM97.1616 326L93.7776 321.752V326H91.2576V312.68H93.7776V320.258L97.1256 316.028H100.402L96.0096 321.032L100.438 326H97.1616ZM111.039 320.798C111.039 321.158 111.015 321.482 110.967 321.77H103.677C103.737 322.49 103.989 323.054 104.433 323.462C104.877 323.87 105.423 324.074 106.071 324.074C107.007 324.074 107.673 323.672 108.069 322.868H110.787C110.499 323.828 109.947 324.62 109.131 325.244C108.315 325.856 107.313 326.162 106.125 326.162C105.165 326.162 104.301 325.952 103.533 325.532C102.777 325.1 102.183 324.494 101.751 323.714C101.331 322.934 101.121 322.034 101.121 321.014C101.121 319.982 101.331 319.076 101.751 318.296C102.171 317.516 102.759 316.916 103.515 316.496C104.271 316.076 105.141 315.866 106.125 315.866C107.073 315.866 107.919 316.07 108.663 316.478C109.419 316.886 110.001 317.468 110.409 318.224C110.829 318.968 111.039 319.826 111.039 320.798ZM108.429 320.078C108.417 319.43 108.183 318.914 107.727 318.53C107.271 318.134 106.713 317.936 106.053 317.936C105.429 317.936 104.901 318.128 104.469 318.512C104.049 318.884 103.791 319.406 103.695 320.078H108.429ZM115.399 317.576C115.723 317.048 116.143 316.634 116.659 316.334C117.187 316.034 117.787 315.884 118.459 315.884V318.53H117.793C117.001 318.53 116.401 318.716 115.993 319.088C115.597 319.46 115.399 320.108 115.399 321.032V326H112.879V316.028H115.399V317.576Z" fill="black"/>
<ellipse cx="87.5802" cy="237.763" rx="31.0687" ry="28.1298" fill="#8383A8"/>
<path fill-rule="evenodd" clip-rule="evenodd" d="M117.12 262.978C119.447 257.184 123.289 251.893 125.458 246.685C124.602 237.222 120.55 228.164 110.516 223.204C104.025 232.022 101.068 239.848 96.8354 258.145V272.486L106.764 277.649L115.094 272.486L115.169 272.358C115.132 269.064 115.927 265.949 117.12 262.978Z" fill="#8383A8"/>
<path fill-rule="evenodd" clip-rule="evenodd" d="M75.1779 272.486C82.6825 256.366 70.345 235.736 64.4314 220.69C54.1352 225.905 50.4956 238.145 49.8427 247.999C51.5988 252.779 54.2854 257.664 55.9589 262.962C56.9045 265.942 57.5275 269.056 57.4898 272.358V272.486L65.407 276.17L75.1779 272.486Z" fill="#8383A8"/>
<ellipse cx="88" cy="294.443" rx="55" ry="5.87786" fill="#21214C"/>
<path d="M57.4924 294.426L59.2006 277.446L55.3812 277.066L53.6346 294.427H33L38.3357 276.745C40.4738 269.661 45.4046 263.606 51.8919 260C54.0607 262.318 56.6095 264.318 59.4924 265.882L74.5648 274.051V290.61H78.4034V276.133L88 281.336L97.5966 276.133V290.61H101.435V274.051L116.506 265.88C119.389 264.318 121.937 262.316 124.106 260C130.594 263.604 135.526 269.661 137.664 276.745L143 294.426H122.365L120.619 277.064L116.799 277.444L118.508 294.424H88H57.4924V294.426Z" fill="#21214C"/>
<path d="M128.96 308.634V306.224C128.96 305.547 128.385 305 127.672 305H96.192H80.7686H49.2885C48.5765 305 48 305.547 48 306.224V308.634C48 309.308 48.5765 309.858 49.2885 309.858H127.672C128.385 309.858 128.96 309.308 128.96 308.634Z" fill="#D3D3D9"/>
<path fill-rule="evenodd" clip-rule="evenodd" d="M53.292 254C52.5779 254 52 254.577 52 255.284V301.292C52 302.002 52.5779 302.576 53.292 302.576H122.763C123.477 302.576 124.055 302.002 124.055 301.292V255.284C124.055 254.577 123.477 254 122.763 254H53.292Z" fill="#D3D3D9"/>
<path fill-rule="evenodd" clip-rule="evenodd" d="M108.364 222.229C108.501 221.269 108.573 220.288 108.573 219.29C108.573 207.928 99.3619 198.718 88 198.718C76.6381 198.718 67.4275 207.928 67.4275 219.29C67.4275 220.288 67.4985 221.269 67.6358 222.229H67.4275V229.532C67.4275 230.537 67.5547 231.576 67.8027 232.634C67.9368 233.197 68.1042 233.773 68.2985 234.343C68.2927 234.469 68.337 234.59 68.4279 234.708C69.947 238.87 73.0514 243.061 77.0222 246.095C78.8983 247.522 80.9619 248.688 83.1395 249.478C84.848 250.095 86.3756 250.443 87.8765 250.517C89.3773 250.443 90.8982 250.095 92.6068 249.478C94.7706 248.694 96.8409 247.535 98.7236 246.121C102.851 243.024 106.114 238.708 107.625 234.447C107.64 234.412 107.653 234.378 107.662 234.343C107.863 233.766 108.03 233.19 108.164 232.621C108.419 231.555 108.573 230.349 108.573 229.103V222.229H108.364Z" fill="#F6F7FB"/>
<path fill-rule="evenodd" clip-rule="evenodd" d="M127.094 239.399C126.666 212.345 104.61 192 87.605 192C70.5999 192 48.5442 212.345 48.1165 239.399C48.0714 242.273 48.792 245.117 49.8426 247.999C50.4956 238.145 54.1351 228.554 64.4313 223.331C64.5139 223.294 64.6041 223.249 64.6866 223.204C73.2341 218.979 80.4684 217.268 87.6053 217.268C94.7345 217.268 101.976 218.979 110.517 223.204C120.55 228.164 124.603 237.222 125.458 246.685C126.479 244.254 127.131 241.838 127.094 239.399Z" fill="#21214C"/>
<rect x="204.286" y="302.696" width="39.4286" height="41.3043" fill="#C3C2CB"/>
<rect x="201" y="294" width="46" height="11.413" rx="2" fill="#D3D3D9"/>
<rect x="201" y="310.177" width="46" height="11.413" rx="2" fill="#D3D3D9"/>
<rect x="201" y="326.721" width="46" height="11.413" rx="2" fill="#D3D3D9"/>
<rect x="204.339" y="297.677" width="4.45161" height="4.41177" rx="1" fill="white"/>
<rect x="211.758" y="297.677" width="4.45161" height="4.41177" rx="1" fill="white"/>
<rect x="219.177" y="297.677" width="4.45161" height="4.41177" rx="1" fill="white"/>
<rect x="204.339" y="313.853" width="4.45161" height="4.41176" rx="1" fill="white"/>
<rect x="204.339" y="330.029" width="4.45161" height="4.41177" rx="1" fill="white"/>
<rect x="211.758" y="313.853" width="4.45161" height="4.41176" rx="1" fill="white"/>
<rect x="211.758" y="330.029" width="4.45161" height="4.41177" rx="1" fill="white"/>
<rect x="219.177" y="313.853" width="4.45161" height="4.41176" rx="1" fill="white"/>
<rect x="219.177" y="330.029" width="4.45161" height="4.41177" rx="1" fill="white"/>
<rect x="419.286" y="175.696" width="39.4286" height="41.3043" fill="#C3C2CB"/>
<rect x="416" y="167" width="46" height="11.413" rx="2" fill="#D3D3D9"/>
<rect x="416" y="183.177" width="46" height="11.413" rx="2" fill="#D3D3D9"/>
<rect x="416" y="199.721" width="46" height="11.413" rx="2" fill="#D3D3D9"/>
<rect x="419.339" y="170.677" width="4.45161" height="4.41177" rx="1" fill="#E55578"/>
<rect x="426.758" y="170.677" width="4.45161" height="4.41177" rx="1" fill="#E55578"/>
<rect x="434.177" y="170.677" width="4.45161" height="4.41177" rx="1" fill="#E55578"/>
<rect x="419.339" y="186.853" width="4.45161" height="4.41176" rx="1" fill="#E55578"/>
<rect x="419.339" y="203.029" width="4.45161" height="4.41177" rx="1" fill="#E55578"/>
<rect x="426.758" y="186.853" width="4.45161" height="4.41176" rx="1" fill="#E55578"/>
<rect x="426.758" y="203.029" width="4.45161" height="4.41177" rx="1" fill="#E55578"/>
<rect x="434.177" y="186.853" width="4.45161" height="4.41176" rx="1" fill="#E55578"/>
<rect x="434.177" y="203.029" width="4.45161" height="4.41177" rx="1" fill="#E55578"/>
<path d="M372.219 64.324C372.219 64.996 372.057 65.626 371.733 66.214C371.421 66.802 370.923 67.276 370.239 67.636C369.567 67.996 368.715 68.176 367.683 68.176H365.577V73H363.057V60.436H367.683C368.655 60.436 369.483 60.604 370.167 60.94C370.851 61.276 371.361 61.738 371.697 62.326C372.045 62.914 372.219 63.58 372.219 64.324ZM367.575 66.142C368.271 66.142 368.787 65.986 369.123 65.674C369.459 65.35 369.627 64.9 369.627 64.324C369.627 63.1 368.943 62.488 367.575 62.488H365.577V66.142H367.575ZM376.529 64.576C376.853 64.048 377.273 63.634 377.789 63.334C378.317 63.034 378.917 62.884 379.589 62.884V65.53H378.923C378.131 65.53 377.531 65.716 377.123 66.088C376.727 66.46 376.529 67.108 376.529 68.032V73H374.009V63.028H376.529V64.576ZM382.564 61.84C382.12 61.84 381.748 61.702 381.448 61.426C381.16 61.138 381.016 60.784 381.016 60.364C381.016 59.944 381.16 59.596 381.448 59.32C381.748 59.032 382.12 58.888 382.564 58.888C383.008 58.888 383.374 59.032 383.662 59.32C383.962 59.596 384.112 59.944 384.112 60.364C384.112 60.784 383.962 61.138 383.662 61.426C383.374 61.702 383.008 61.84 382.564 61.84ZM383.806 63.028V73H381.286V63.028H383.806ZM390.454 70.678L392.974 63.028H395.656L391.966 73H388.906L385.234 63.028H387.934L390.454 70.678ZM396.423 67.978C396.423 66.97 396.621 66.076 397.017 65.296C397.425 64.516 397.971 63.916 398.655 63.496C399.351 63.076 400.125 62.866 400.977 62.866C401.721 62.866 402.369 63.016 402.921 63.316C403.485 63.616 403.935 63.994 404.271 64.45V63.028H406.809V73H404.271V71.542C403.947 72.01 403.497 72.4 402.921 72.712C402.357 73.012 401.703 73.162 400.959 73.162C400.119 73.162 399.351 72.946 398.655 72.514C397.971 72.082 397.425 71.476 397.017 70.696C396.621 69.904 396.423 68.998 396.423 67.978ZM404.271 68.014C404.271 67.402 404.151 66.88 403.911 66.448C403.671 66.004 403.347 65.668 402.939 65.44C402.531 65.2 402.093 65.08 401.625 65.08C401.157 65.08 400.725 65.194 400.329 65.422C399.933 65.65 399.609 65.986 399.357 66.43C399.117 66.862 398.997 67.378 398.997 67.978C398.997 68.578 399.117 69.106 399.357 69.562C399.609 70.006 399.933 70.348 400.329 70.588C400.737 70.828 401.169 70.948 401.625 70.948C402.093 70.948 402.531 70.834 402.939 70.606C403.347 70.366 403.671 70.03 403.911 69.598C404.151 69.154 404.271 68.626 404.271 68.014ZM412.204 65.098V69.922C412.204 70.258 412.282 70.504 412.438 70.66C412.606 70.804 412.882 70.876 413.266 70.876H414.436V73H412.852C410.728 73 409.666 71.968 409.666 69.904V65.098H408.478V63.028H409.666V60.562H412.204V63.028H414.436V65.098H412.204ZM425.519 67.798C425.519 68.158 425.495 68.482 425.447 68.77H418.157C418.217 69.49 418.469 70.054 418.913 70.462C419.357 70.87 419.903 71.074 420.551 71.074C421.487 71.074 422.153 70.672 422.549 69.868H425.267C424.979 70.828 424.427 71.62 423.611 72.244C422.795 72.856 421.793 73.162 420.605 73.162C419.645 73.162 418.781 72.952 418.013 72.532C417.257 72.1 416.663 71.494 416.231 70.714C415.811 69.934 415.601 69.034 415.601 68.014C415.601 66.982 415.811 66.076 416.231 65.296C416.651 64.516 417.239 63.916 417.995 63.496C418.751 63.076 419.621 62.866 420.605 62.866C421.553 62.866 422.399 63.07 423.143 63.478C423.899 63.886 424.481 64.468 424.889 65.224C425.309 65.968 425.519 66.826 425.519 67.798ZM422.909 67.078C422.897 66.43 422.663 65.914 422.207 65.53C421.751 65.134 421.193 64.936 420.533 64.936C419.909 64.936 419.381 65.128 418.949 65.512C418.529 65.884 418.271 66.406 418.175 67.078H422.909ZM442.393 73H439.873L434.167 64.378V73H431.647V60.418H434.167L439.873 69.058V60.418H442.393V73ZM454.154 67.798C454.154 68.158 454.13 68.482 454.082 68.77H446.792C446.852 69.49 447.104 70.054 447.548 70.462C447.992 70.87 448.538 71.074 449.186 71.074C450.122 71.074 450.788 70.672 451.184 69.868H453.902C453.614 70.828 453.062 71.62 452.246 72.244C451.43 72.856 450.428 73.162 449.24 73.162C448.28 73.162 447.416 72.952 446.648 72.532C445.892 72.1 445.298 71.494 444.866 70.714C444.446 69.934 444.236 69.034 444.236 68.014C444.236 66.982 444.446 66.076 444.866 65.296C445.286 64.516 445.874 63.916 446.63 63.496C447.386 63.076 448.256 62.866 449.24 62.866C450.188 62.866 451.034 63.07 451.778 63.478C452.534 63.886 453.116 64.468 453.524 65.224C453.944 65.968 454.154 66.826 454.154 67.798ZM451.544 67.078C451.532 66.43 451.298 65.914 450.842 65.53C450.386 65.134 449.828 64.936 449.168 64.936C448.544 64.936 448.016 65.128 447.584 65.512C447.164 65.884 446.906 66.406 446.81 67.078H451.544ZM458.927 65.098V69.922C458.927 70.258 459.005 70.504 459.161 70.66C459.329 70.804 459.605 70.876 459.989 70.876H461.159V73H459.575C457.451 73 456.389 71.968 456.389 69.904V65.098H455.201V63.028H456.389V60.562H458.927V63.028H461.159V65.098H458.927ZM476.795 63.028L473.879 73H471.161L469.343 66.034L467.525 73H464.789L461.855 63.028H464.411L466.175 70.624L468.083 63.028H470.747L472.619 70.606L474.383 63.028H476.795ZM482.587 73.162C481.627 73.162 480.763 72.952 479.995 72.532C479.227 72.1 478.621 71.494 478.177 70.714C477.745 69.934 477.529 69.034 477.529 68.014C477.529 66.994 477.751 66.094 478.195 65.314C478.651 64.534 479.269 63.934 480.049 63.514C480.829 63.082 481.699 62.866 482.659 62.866C483.619 62.866 484.489 63.082 485.269 63.514C486.049 63.934 486.661 64.534 487.105 65.314C487.561 66.094 487.789 66.994 487.789 68.014C487.789 69.034 487.555 69.934 487.087 70.714C486.631 71.494 486.007 72.1 485.215 72.532C484.435 72.952 483.559 73.162 482.587 73.162ZM482.587 70.966C483.043 70.966 483.469 70.858 483.865 70.642C484.273 70.414 484.597 70.078 484.837 69.634C485.077 69.19 485.197 68.65 485.197 68.014C485.197 67.066 484.945 66.34 484.441 65.836C483.949 65.32 483.343 65.062 482.623 65.062C481.903 65.062 481.297 65.32 480.805 65.836C480.325 66.34 480.085 67.066 480.085 68.014C480.085 68.962 480.319 69.694 480.787 70.21C481.267 70.714 481.867 70.966 482.587 70.966ZM492.158 64.576C492.482 64.048 492.902 63.634 493.418 63.334C493.946 63.034 494.546 62.884 495.218 62.884V65.53H494.552C493.76 65.53 493.16 65.716 492.752 66.088C492.356 66.46 492.158 67.108 492.158 68.032V73H489.638V63.028H492.158V64.576ZM502.819 73L499.435 68.752V73H496.915V59.68H499.435V67.258L502.783 63.028H506.059L501.667 68.032L506.095 73H502.819Z" fill="#1B1B3E"/>
<rect x="419.286" y="304.696" width="39.4286" height="41.3043" fill="#C3C2CB"/>
<rect x="416" y="296" width="46" height="11.413" rx="2" fill="#D3D3D9"/>
<rect x="416" y="312.177" width="46" height="11.413" rx="2" fill="#D3D3D9"/>
<rect x="416" y="328.721" width="46" height="11.413" rx="2" fill="#D3D3D9"/>
<rect x="419.339" y="299.677" width="4.45161" height="4.41177" rx="1" fill="white"/>
<rect x="426.758" y="299.677" width="4.45161" height="4.41177" rx="1" fill="white"/>
<rect x="434.177" y="299.677" width="4.45161" height="4.41177" rx="1" fill="white"/>
<rect x="419.339" y="315.853" width="4.45161" height="4.41176" rx="1" fill="white"/>
<rect x="419.339" y="332.029" width="4.45161" height="4.41177" rx="1" fill="white"/>
<rect x="426.758" y="315.853" width="4.45161" height="4.41176" rx="1" fill="white"/>
<rect x="426.758" y="332.029" width="4.45161" height="4.41177" rx="1" fill="white"/>
<rect x="434.177" y="315.853" width="4.45161" height="4.41176" rx="1" fill="white"/>
<rect x="434.177" y="332.029" width="4.45161" height="4.41177" rx="1" fill="white"/>
<rect x="419.286" y="433.696" width="39.4286" height="41.3043" fill="#C3C2CB"/>
<rect x="416" y="425" width="46" height="11.413" rx="2" fill="#D3D3D9"/>
<rect x="416" y="441.177" width="46" height="11.413" rx="2" fill="#D3D3D9"/>
<rect x="416" y="457.721" width="46" height="11.413" rx="2" fill="#D3D3D9"/>
<rect x="419.339" y="428.677" width="4.45161" height="4.41177" rx="1" fill="white"/>
<rect x="426.758" y="428.677" width="4.45161" height="4.41177" rx="1" fill="white"/>
<rect x="434.177" y="428.677" width="4.45161" height="4.41177" rx="1" fill="white"/>
<rect x="419.339" y="444.853" width="4.45161" height="4.41176" rx="1" fill="white"/>
<rect x="419.339" y="461.029" width="4.45161" height="4.41177" rx="1" fill="white"/>
<rect x="426.758" y="444.853" width="4.45161" height="4.41176" rx="1" fill="white"/>
<rect x="426.758" y="461.029" width="4.45161" height="4.41177" rx="1" fill="white"/>
<rect x="434.177" y="444.853" width="4.45161" height="4.41176" rx="1" fill="white"/>
<rect x="434.177" y="461.029" width="4.45161" height="4.41177" rx="1" fill="white"/>
<path d="M316 155L316 154L315 154L315 155L316 155ZM416.707 155.707C417.098 155.317 417.098 154.683 416.707 154.293L410.343 147.929C409.953 147.538 409.319 147.538 408.929 147.929C408.538 148.319 408.538 148.953 408.929 149.343L414.586 155L408.929 160.657C408.538 161.047 408.538 161.681 408.929 162.071C409.319 162.462 409.953 162.462 410.343 162.071L416.707 155.707ZM315 238C315 238.552 315.448 239 316 239C316.552 239 317 238.552 317 238L315 238ZM316 156L416 156L416 154L316 154L316 156ZM315 155L315 238L317 238L317 155L315 155Z" fill="#E55578"/>
<path d="M154 281C153.448 281 153 281.448 153 282C153 282.552 153.448 283 154 283L154 281ZM210.707 282.707C211.098 282.317 211.098 281.683 210.707 281.293L204.343 274.929C203.953 274.538 203.319 274.538 202.929 274.929C202.538 275.319 202.538 275.953 202.929 276.343L208.586 282L202.929 287.657C202.538 288.047 202.538 288.681 202.929 289.071C203.319 289.462 203.953 289.462 204.343 289.071L210.707 282.707ZM154 283L210 283L210 281L154 281L154 283Z" fill="#E55578"/>
<path d="M501 182C489.975 182 481 173.025 481 162C481 150.975 489.975 142 501 142C512.025 142 521 150.975 521 162C521 173.025 512.025 182 501 182Z" fill="white"/>
<path fill-rule="evenodd" clip-rule="evenodd" d="M476 162C476 148.175 487.175 137 501 137C514.825 137 526 148.175 526 162C526 175.825 514.825 187 501 187C487.175 187 476 175.825 476 162ZM501 158.475L507.475 152L511 155.525L504.525 162L511 168.475L507.475 172L501 165.525L494.525 172L491 168.475L497.475 162L491 155.525L494.525 152L501 158.475Z" fill="#E55578"/>
<path d="M402.757 487.076C402.229 487.076 401.753 486.986 401.326 486.805C400.907 486.624 400.575 486.364 400.329 486.025C400.083 485.685 399.957 485.284 399.95 484.822H401.575C401.597 485.132 401.706 485.378 401.901 485.559C402.103 485.739 402.378 485.829 402.724 485.829C403.078 485.829 403.357 485.746 403.559 485.58C403.761 485.407 403.862 485.183 403.862 484.908C403.862 484.684 403.794 484.5 403.656 484.355C403.519 484.211 403.346 484.099 403.136 484.02C402.934 483.933 402.652 483.839 402.291 483.738C401.799 483.593 401.398 483.452 401.088 483.315C400.784 483.171 400.521 482.957 400.297 482.676C400.08 482.387 399.971 482.004 399.971 481.527C399.971 481.079 400.083 480.689 400.307 480.356C400.531 480.024 400.846 479.771 401.25 479.598C401.655 479.417 402.117 479.327 402.638 479.327C403.418 479.327 404.05 479.518 404.534 479.901C405.026 480.277 405.297 480.804 405.347 481.483H403.678C403.664 481.223 403.552 481.01 403.342 480.844C403.14 480.671 402.869 480.584 402.529 480.584C402.233 480.584 401.995 480.66 401.814 480.811C401.641 480.963 401.554 481.184 401.554 481.473C401.554 481.675 401.619 481.845 401.749 481.982C401.886 482.112 402.052 482.22 402.247 482.307C402.45 482.387 402.732 482.481 403.093 482.589C403.584 482.733 403.985 482.878 404.296 483.022C404.607 483.167 404.874 483.384 405.098 483.673C405.322 483.962 405.434 484.341 405.434 484.811C405.434 485.215 405.329 485.591 405.12 485.938C404.91 486.285 404.603 486.563 404.198 486.772C403.794 486.975 403.313 487.076 402.757 487.076ZM412.331 483.868C412.331 484.085 412.317 484.28 412.288 484.453H407.898C407.934 484.887 408.086 485.226 408.353 485.472C408.621 485.717 408.949 485.84 409.34 485.84C409.903 485.84 410.304 485.598 410.543 485.114H412.179C412.006 485.692 411.673 486.169 411.182 486.545C410.691 486.913 410.087 487.098 409.372 487.098C408.794 487.098 408.274 486.971 407.811 486.718C407.356 486.458 406.999 486.093 406.738 485.624C406.486 485.154 406.359 484.612 406.359 483.998C406.359 483.376 406.486 482.831 406.738 482.361C406.991 481.892 407.345 481.53 407.801 481.277C408.256 481.025 408.78 480.898 409.372 480.898C409.943 480.898 410.452 481.021 410.9 481.267C411.356 481.512 411.706 481.863 411.952 482.318C412.205 482.766 412.331 483.283 412.331 483.868ZM410.759 483.434C410.752 483.044 410.611 482.733 410.337 482.502C410.062 482.264 409.726 482.145 409.329 482.145C408.953 482.145 408.635 482.26 408.375 482.491C408.122 482.715 407.967 483.03 407.909 483.434H410.759ZM414.956 481.928C415.151 481.61 415.404 481.361 415.714 481.18C416.032 480.999 416.394 480.909 416.798 480.909V482.502H416.397C415.92 482.502 415.559 482.614 415.313 482.838C415.075 483.062 414.956 483.452 414.956 484.009V487H413.438V480.996H414.956V481.928ZM420.324 485.602L421.841 480.996H423.456L421.234 487H419.392L417.181 480.996H418.807L420.324 485.602ZM425.078 480.28C424.811 480.28 424.587 480.197 424.406 480.031C424.232 479.858 424.146 479.645 424.146 479.392C424.146 479.139 424.232 478.929 424.406 478.763C424.587 478.59 424.811 478.503 425.078 478.503C425.345 478.503 425.566 478.59 425.739 478.763C425.92 478.929 426.01 479.139 426.01 479.392C426.01 479.645 425.92 479.858 425.739 480.031C425.566 480.197 425.345 480.28 425.078 480.28ZM425.826 480.996V487H424.308V480.996H425.826ZM426.935 483.998C426.935 483.376 427.061 482.835 427.314 482.372C427.567 481.902 427.917 481.541 428.365 481.288C428.813 481.028 429.326 480.898 429.904 480.898C430.649 480.898 431.263 481.086 431.747 481.462C432.238 481.83 432.567 482.35 432.733 483.022H431.097C431.01 482.762 430.862 482.56 430.652 482.415C430.45 482.264 430.197 482.188 429.893 482.188C429.46 482.188 429.117 482.347 428.864 482.665C428.611 482.975 428.485 483.42 428.485 483.998C428.485 484.569 428.611 485.013 428.864 485.331C429.117 485.642 429.46 485.797 429.893 485.797C430.508 485.797 430.909 485.522 431.097 484.973H432.733C432.567 485.624 432.238 486.14 431.747 486.523C431.255 486.906 430.641 487.098 429.904 487.098C429.326 487.098 428.813 486.971 428.365 486.718C427.917 486.458 427.567 486.097 427.314 485.634C427.061 485.165 426.935 484.619 426.935 483.998ZM439.426 483.868C439.426 484.085 439.412 484.28 439.383 484.453H434.993C435.03 484.887 435.181 485.226 435.449 485.472C435.716 485.717 436.045 485.84 436.435 485.84C436.999 485.84 437.4 485.598 437.638 485.114H439.275C439.101 485.692 438.769 486.169 438.277 486.545C437.786 486.913 437.183 487.098 436.467 487.098C435.889 487.098 435.369 486.971 434.907 486.718C434.452 486.458 434.094 486.093 433.834 485.624C433.581 485.154 433.454 484.612 433.454 483.998C433.454 483.376 433.581 482.831 433.834 482.361C434.087 481.892 434.441 481.53 434.896 481.277C435.351 481.025 435.875 480.898 436.467 480.898C437.038 480.898 437.548 481.021 437.996 481.267C438.451 481.512 438.801 481.863 439.047 482.318C439.3 482.766 439.426 483.283 439.426 483.868ZM437.855 483.434C437.848 483.044 437.707 482.733 437.432 482.502C437.157 482.264 436.822 482.145 436.424 482.145C436.048 482.145 435.73 482.26 435.47 482.491C435.217 482.715 435.062 483.03 435.004 483.434H437.855ZM445.728 487.076C445.201 487.076 444.724 486.986 444.298 486.805C443.879 486.624 443.546 486.364 443.301 486.025C443.055 485.685 442.928 485.284 442.921 484.822H444.547C444.569 485.132 444.677 485.378 444.872 485.559C445.074 485.739 445.349 485.829 445.696 485.829C446.05 485.829 446.328 485.746 446.53 485.58C446.733 485.407 446.834 485.183 446.834 484.908C446.834 484.684 446.765 484.5 446.628 484.355C446.491 484.211 446.317 484.099 446.108 484.02C445.905 483.933 445.624 483.839 445.262 483.738C444.771 483.593 444.37 483.452 444.059 483.315C443.756 483.171 443.492 482.957 443.268 482.676C443.051 482.387 442.943 482.004 442.943 481.527C442.943 481.079 443.055 480.689 443.279 480.356C443.503 480.024 443.817 479.771 444.222 479.598C444.626 479.417 445.089 479.327 445.609 479.327C446.389 479.327 447.022 479.518 447.506 479.901C447.997 480.277 448.268 480.804 448.319 481.483H446.65C446.635 481.223 446.523 481.01 446.314 480.844C446.111 480.671 445.84 480.584 445.501 480.584C445.204 480.584 444.966 480.66 444.785 480.811C444.612 480.963 444.525 481.184 444.525 481.473C444.525 481.675 444.59 481.845 444.72 481.982C444.858 482.112 445.024 482.22 445.219 482.307C445.421 482.387 445.703 482.481 446.064 482.589C446.556 482.733 446.957 482.878 447.267 483.022C447.578 483.167 447.845 483.384 448.069 483.673C448.293 483.962 448.405 484.341 448.405 484.811C448.405 485.215 448.301 485.591 448.091 485.938C447.881 486.285 447.574 486.563 447.17 486.772C446.765 486.975 446.285 487.076 445.728 487.076ZM455.302 483.868C455.302 484.085 455.288 484.28 455.259 484.453H450.87C450.906 484.887 451.058 485.226 451.325 485.472C451.592 485.717 451.921 485.84 452.311 485.84C452.875 485.84 453.276 485.598 453.514 485.114H455.151C454.977 485.692 454.645 486.169 454.154 486.545C453.662 486.913 453.059 487.098 452.344 487.098C451.766 487.098 451.245 486.971 450.783 486.718C450.328 486.458 449.97 486.093 449.71 485.624C449.457 485.154 449.331 484.612 449.331 483.998C449.331 483.376 449.457 482.831 449.71 482.361C449.963 481.892 450.317 481.53 450.772 481.277C451.227 481.025 451.751 480.898 452.344 480.898C452.914 480.898 453.424 481.021 453.872 481.267C454.327 481.512 454.677 481.863 454.923 482.318C455.176 482.766 455.302 483.283 455.302 483.868ZM453.731 483.434C453.724 483.044 453.583 482.733 453.308 482.502C453.034 482.264 452.698 482.145 452.3 482.145C451.925 482.145 451.607 482.26 451.347 482.491C451.094 482.715 450.938 483.03 450.88 483.434H453.731ZM457.927 481.928C458.122 481.61 458.375 481.361 458.686 481.18C459.004 480.999 459.365 480.909 459.77 480.909V482.502H459.369C458.892 482.502 458.531 482.614 458.285 482.838C458.047 483.062 457.927 483.452 457.927 484.009V487H456.41V480.996H457.927V481.928ZM463.295 485.602L464.813 480.996H466.428L464.206 487H462.363L460.152 480.996H461.778L463.295 485.602ZM472.861 483.868C472.861 484.085 472.847 484.28 472.818 484.453H468.429C468.465 484.887 468.617 485.226 468.884 485.472C469.151 485.717 469.48 485.84 469.87 485.84C470.434 485.84 470.835 485.598 471.073 485.114H472.71C472.536 485.692 472.204 486.169 471.713 486.545C471.221 486.913 470.618 487.098 469.903 487.098C469.325 487.098 468.804 486.971 468.342 486.718C467.887 486.458 467.529 486.093 467.269 485.624C467.016 485.154 466.89 484.612 466.89 483.998C466.89 483.376 467.016 482.831 467.269 482.361C467.522 481.892 467.876 481.53 468.331 481.277C468.786 481.025 469.31 480.898 469.903 480.898C470.473 480.898 470.983 481.021 471.431 481.267C471.886 481.512 472.236 481.863 472.482 482.318C472.735 482.766 472.861 483.283 472.861 483.868ZM471.29 483.434C471.283 483.044 471.142 482.733 470.867 482.502C470.593 482.264 470.257 482.145 469.859 482.145C469.484 482.145 469.166 482.26 468.906 482.491C468.653 482.715 468.497 483.03 468.44 483.434H471.29ZM475.486 481.928C475.681 481.61 475.934 481.361 476.245 481.18C476.563 480.999 476.924 480.909 477.329 480.909V482.502H476.928C476.451 482.502 476.09 482.614 475.844 482.838C475.606 483.062 475.486 483.452 475.486 484.009V487H473.969V480.996H475.486V481.928Z" fill="#1B1B3E"/>
<path d="M316 427L316 428L315 428L315 427L316 427ZM416.707 426.293C417.098 426.683 417.098 427.317 416.707 427.707L410.343 434.071C409.953 434.462 409.319 434.462 408.929 434.071C408.538 433.681 408.538 433.047 408.929 432.657L414.586 427L408.929 421.343C408.538 420.953 408.538 420.319 408.929 419.929C409.319 419.538 409.953 419.538 410.343 419.929L416.707 426.293ZM315 344C315 343.448 315.448 343 316 343C316.552 343 317 343.448 317 344L315 344ZM316 426L416 426L416 428L316 428L316 426ZM315 427L315 344L317 344L317 427L315 427Z" fill="#21214C"/>
<path d="M388.282 225.207C388.282 224.462 388.448 223.798 388.781 223.212C389.12 222.62 389.579 222.161 390.157 221.836C390.742 221.504 391.396 221.337 392.119 221.337C392.964 221.337 393.705 221.554 394.341 221.988C394.976 222.421 395.421 223.021 395.674 223.787H393.929C393.755 223.426 393.51 223.155 393.192 222.974C392.881 222.793 392.52 222.703 392.108 222.703C391.667 222.703 391.273 222.808 390.927 223.017C390.587 223.22 390.32 223.509 390.124 223.884C389.937 224.26 389.843 224.701 389.843 225.207C389.843 225.705 389.937 226.146 390.124 226.529C390.32 226.905 390.587 227.197 390.927 227.407C391.273 227.609 391.667 227.71 392.108 227.71C392.52 227.71 392.881 227.62 393.192 227.439C393.51 227.251 393.755 226.977 393.929 226.616H395.674C395.421 227.389 394.976 227.992 394.341 228.426C393.712 228.852 392.971 229.065 392.119 229.065C391.396 229.065 390.742 228.902 390.157 228.577C389.579 228.245 389.12 227.786 388.781 227.201C388.448 226.616 388.282 225.951 388.282 225.207ZM399.636 229.098C399.058 229.098 398.538 228.971 398.075 228.718C397.613 228.458 397.248 228.093 396.98 227.624C396.72 227.154 396.59 226.612 396.59 225.998C396.59 225.384 396.724 224.842 396.991 224.372C397.266 223.902 397.638 223.541 398.108 223.288C398.577 223.028 399.101 222.898 399.679 222.898C400.257 222.898 400.781 223.028 401.251 223.288C401.72 223.541 402.089 223.902 402.356 224.372C402.631 224.842 402.768 225.384 402.768 225.998C402.768 226.612 402.627 227.154 402.345 227.624C402.071 228.093 401.695 228.458 401.218 228.718C400.749 228.971 400.221 229.098 399.636 229.098ZM399.636 227.775C399.91 227.775 400.167 227.71 400.405 227.58C400.651 227.443 400.846 227.241 400.991 226.973C401.135 226.706 401.207 226.381 401.207 225.998C401.207 225.427 401.056 224.99 400.752 224.686C400.456 224.376 400.091 224.22 399.657 224.22C399.224 224.22 398.859 224.376 398.563 224.686C398.274 224.99 398.129 225.427 398.129 225.998C398.129 226.569 398.27 227.009 398.552 227.32C398.841 227.624 399.202 227.775 399.636 227.775ZM407.208 222.909C407.924 222.909 408.502 223.137 408.942 223.592C409.383 224.04 409.604 224.668 409.604 225.478V229H408.086V225.684C408.086 225.207 407.967 224.842 407.729 224.589C407.49 224.329 407.165 224.199 406.753 224.199C406.334 224.199 406.002 224.329 405.756 224.589C405.518 224.842 405.398 225.207 405.398 225.684V229H403.881V222.996H405.398V223.744C405.601 223.483 405.857 223.281 406.168 223.137C406.486 222.985 406.833 222.909 407.208 222.909ZM413.799 224.242H412.748V229H411.209V224.242H410.526V222.996H411.209V222.692C411.209 221.955 411.419 221.413 411.838 221.066C412.257 220.72 412.889 220.557 413.734 220.579V221.858C413.366 221.85 413.109 221.912 412.965 222.042C412.82 222.172 412.748 222.407 412.748 222.746V222.996H413.799V224.242ZM416.3 220.98V229H414.783V220.98H416.3ZM423.467 222.996V229H421.939V228.241C421.744 228.501 421.488 228.707 421.17 228.859C420.859 229.004 420.52 229.076 420.151 229.076C419.681 229.076 419.266 228.978 418.905 228.783C418.543 228.581 418.258 228.288 418.048 227.905C417.846 227.515 417.745 227.053 417.745 226.518V222.996H419.262V226.301C419.262 226.778 419.382 227.147 419.62 227.407C419.858 227.66 420.184 227.786 420.595 227.786C421.014 227.786 421.343 227.66 421.582 227.407C421.82 227.147 421.939 226.778 421.939 226.301V222.996H423.467ZM430.546 225.868C430.546 226.085 430.532 226.28 430.503 226.453H426.113C426.15 226.887 426.301 227.226 426.569 227.472C426.836 227.717 427.165 227.84 427.555 227.84C428.118 227.84 428.519 227.598 428.758 227.114H430.394C430.221 227.692 429.889 228.169 429.397 228.545C428.906 228.913 428.303 229.098 427.587 229.098C427.009 229.098 426.489 228.971 426.027 228.718C425.572 228.458 425.214 228.093 424.954 227.624C424.701 227.154 424.574 226.612 424.574 225.998C424.574 225.376 424.701 224.831 424.954 224.361C425.207 223.892 425.561 223.53 426.016 223.277C426.471 223.025 426.995 222.898 427.587 222.898C428.158 222.898 428.668 223.021 429.116 223.267C429.571 223.512 429.921 223.863 430.167 224.318C430.42 224.766 430.546 225.283 430.546 225.868ZM428.975 225.434C428.967 225.044 428.827 224.733 428.552 224.502C428.277 224.264 427.941 224.145 427.544 224.145C427.168 224.145 426.85 224.26 426.59 224.491C426.337 224.715 426.182 225.03 426.124 225.434H428.975ZM434.981 222.909C435.696 222.909 436.274 223.137 436.715 223.592C437.156 224.04 437.376 224.668 437.376 225.478V229H435.859V225.684C435.859 225.207 435.74 224.842 435.501 224.589C435.263 224.329 434.938 224.199 434.526 224.199C434.107 224.199 433.774 224.329 433.529 224.589C433.29 224.842 433.171 225.207 433.171 225.684V229H431.654V222.996H433.171V223.744C433.373 223.483 433.63 223.281 433.941 223.137C434.259 222.985 434.605 222.909 434.981 222.909ZM438.429 225.998C438.429 225.376 438.555 224.835 438.808 224.372C439.061 223.902 439.412 223.541 439.86 223.288C440.308 223.028 440.821 222.898 441.399 222.898C442.143 222.898 442.757 223.086 443.241 223.462C443.732 223.83 444.061 224.35 444.227 225.022H442.591C442.504 224.762 442.356 224.56 442.146 224.415C441.944 224.264 441.691 224.188 441.388 224.188C440.954 224.188 440.611 224.347 440.358 224.665C440.105 224.975 439.979 225.42 439.979 225.998C439.979 226.569 440.105 227.013 440.358 227.331C440.611 227.642 440.954 227.797 441.388 227.797C442.002 227.797 442.403 227.522 442.591 226.973H444.227C444.061 227.624 443.732 228.14 443.241 228.523C442.75 228.906 442.136 229.098 441.399 229.098C440.821 229.098 440.308 228.971 439.86 228.718C439.412 228.458 439.061 228.097 438.808 227.634C438.555 227.165 438.429 226.619 438.429 225.998ZM450.921 225.868C450.921 226.085 450.906 226.28 450.877 226.453H446.488C446.524 226.887 446.676 227.226 446.943 227.472C447.21 227.717 447.539 227.84 447.929 227.84C448.493 227.84 448.894 227.598 449.132 227.114H450.769C450.595 227.692 450.263 228.169 449.772 228.545C449.28 228.913 448.677 229.098 447.962 229.098C447.384 229.098 446.864 228.971 446.401 228.718C445.946 228.458 445.588 228.093 445.328 227.624C445.075 227.154 444.949 226.612 444.949 225.998C444.949 225.376 445.075 224.831 445.328 224.361C445.581 223.892 445.935 223.53 446.39 223.277C446.845 223.025 447.369 222.898 447.962 222.898C448.533 222.898 449.042 223.021 449.49 223.267C449.945 223.512 450.296 223.863 450.541 224.318C450.794 224.766 450.921 225.283 450.921 225.868ZM449.349 225.434C449.342 225.044 449.201 224.733 448.926 224.502C448.652 224.264 448.316 224.145 447.918 224.145C447.543 224.145 447.225 224.26 446.965 224.491C446.712 224.715 446.556 225.03 446.499 225.434H449.349ZM457.223 229.076C456.695 229.076 456.218 228.986 455.792 228.805C455.373 228.624 455.041 228.364 454.795 228.025C454.549 227.685 454.423 227.284 454.416 226.822H456.041C456.063 227.132 456.171 227.378 456.366 227.559C456.569 227.739 456.843 227.829 457.19 227.829C457.544 227.829 457.822 227.746 458.025 227.58C458.227 227.407 458.328 227.183 458.328 226.908C458.328 226.684 458.259 226.5 458.122 226.355C457.985 226.211 457.812 226.099 457.602 226.02C457.4 225.933 457.118 225.839 456.757 225.738C456.265 225.593 455.864 225.452 455.554 225.315C455.25 225.171 454.986 224.957 454.762 224.676C454.546 224.387 454.437 224.004 454.437 223.527C454.437 223.079 454.549 222.689 454.773 222.356C454.997 222.024 455.312 221.771 455.716 221.598C456.121 221.417 456.583 221.327 457.103 221.327C457.884 221.327 458.516 221.518 459 221.901C459.491 222.277 459.762 222.804 459.813 223.483H458.144C458.129 223.223 458.017 223.01 457.808 222.844C457.606 222.671 457.335 222.584 456.995 222.584C456.699 222.584 456.46 222.66 456.28 222.811C456.106 222.963 456.02 223.184 456.02 223.473C456.02 223.675 456.085 223.845 456.215 223.982C456.352 224.112 456.518 224.22 456.713 224.307C456.916 224.387 457.197 224.481 457.559 224.589C458.05 224.733 458.451 224.878 458.762 225.022C459.072 225.167 459.34 225.384 459.564 225.673C459.788 225.962 459.9 226.341 459.9 226.811C459.9 227.215 459.795 227.591 459.585 227.938C459.376 228.285 459.069 228.563 458.664 228.772C458.259 228.975 457.779 229.076 457.223 229.076ZM466.797 225.868C466.797 226.085 466.782 226.28 466.753 226.453H462.364C462.4 226.887 462.552 227.226 462.819 227.472C463.087 227.717 463.415 227.84 463.805 227.84C464.369 227.84 464.77 227.598 465.008 227.114H466.645C466.472 227.692 466.139 228.169 465.648 228.545C465.157 228.913 464.553 229.098 463.838 229.098C463.26 229.098 462.74 228.971 462.277 228.718C461.822 228.458 461.464 228.093 461.204 227.624C460.951 227.154 460.825 226.612 460.825 225.998C460.825 225.376 460.951 224.831 461.204 224.361C461.457 223.892 461.811 223.53 462.266 223.277C462.722 223.025 463.245 222.898 463.838 222.898C464.409 222.898 464.918 223.021 465.366 223.267C465.821 223.512 466.172 223.863 466.417 224.318C466.67 224.766 466.797 225.283 466.797 225.868ZM465.225 225.434C465.218 225.044 465.077 224.733 464.803 224.502C464.528 224.264 464.192 224.145 463.795 224.145C463.419 224.145 463.101 224.26 462.841 224.491C462.588 224.715 462.433 225.03 462.375 225.434H465.225ZM469.422 223.928C469.617 223.61 469.87 223.361 470.18 223.18C470.498 222.999 470.859 222.909 471.264 222.909V224.502H470.863C470.386 224.502 470.025 224.614 469.779 224.838C469.541 225.062 469.422 225.452 469.422 226.009V229H467.904V222.996H469.422V223.928ZM474.79 227.602L476.307 222.996H477.922L475.7 229H473.858L471.647 222.996H473.272L474.79 227.602ZM484.356 225.868C484.356 226.085 484.341 226.28 484.312 226.453H479.923C479.959 226.887 480.111 227.226 480.378 227.472C480.646 227.717 480.974 227.84 481.364 227.84C481.928 227.84 482.329 227.598 482.568 227.114H484.204C484.031 227.692 483.698 228.169 483.207 228.545C482.716 228.913 482.112 229.098 481.397 229.098C480.819 229.098 480.299 228.971 479.836 228.718C479.381 228.458 479.023 228.093 478.763 227.624C478.51 227.154 478.384 226.612 478.384 225.998C478.384 225.376 478.51 224.831 478.763 224.361C479.016 223.892 479.37 223.53 479.825 223.277C480.281 223.025 480.805 222.898 481.397 222.898C481.968 222.898 482.477 223.021 482.925 223.267C483.38 223.512 483.731 223.863 483.976 224.318C484.229 224.766 484.356 225.283 484.356 225.868ZM482.784 225.434C482.777 225.044 482.636 224.733 482.362 224.502C482.087 224.264 481.751 224.145 481.354 224.145C480.978 224.145 480.66 224.26 480.4 224.491C480.147 224.715 479.992 225.03 479.934 225.434H482.784ZM486.981 223.928C487.176 223.61 487.429 223.361 487.739 223.18C488.057 222.999 488.419 222.909 488.823 222.909V224.502H488.422C487.945 224.502 487.584 224.614 487.338 224.838C487.1 225.062 486.981 225.452 486.981 226.009V229H485.463V222.996H486.981V223.928Z" fill="#E55578"/>
<defs>
<filter id="filter0_d_106_2830" x="219" y="237" width="133.097" height="96.7273" filterUnits="userSpaceOnUse" color-interpolation-filters="sRGB">
<feFlood flood-opacity="0" result="BackgroundImageFix"/>
<feColorMatrix in="SourceAlpha" type="matrix" values="0 0 0 0 0 0 0 0 0 0 0 0 0 0 0 0 0 0 127 0" result="hardAlpha"/>
<feOffset dy="3"/>
<feGaussianBlur stdDeviation="2.5"/>
<feColorMatrix type="matrix" values="0 0 0 0 0.512977 0 0 0 0 0.512977 0 0 0 0 0.659505 0 0 0 0.15 0"/>
<feBlend mode="normal" in2="BackgroundImageFix" result="effect1_dropShadow_106_2830"/>
<feBlend mode="normal" in="SourceGraphic" in2="effect1_dropShadow_106_2830" result="shape"/>
</filter>
<filter id="filter1_d_106_2830" x="434" y="110" width="133.097" height="96.7273" filterUnits="userSpaceOnUse" color-interpolation-filters="sRGB">
<feFlood flood-opacity="0" result="BackgroundImageFix"/>
<feColorMatrix in="SourceAlpha" type="matrix" values="0 0 0 0 0 0 0 0 0 0 0 0 0 0 0 0 0 0 127 0" result="hardAlpha"/>
<feOffset dy="3"/>
<feGaussianBlur stdDeviation="2.5"/>
<feColorMatrix type="matrix" values="0 0 0 0 0.512977 0 0 0 0 0.512977 0 0 0 0 0.659505 0 0 0 0.15 0"/>
<feBlend mode="normal" in2="BackgroundImageFix" result="effect1_dropShadow_106_2830"/>
<feBlend mode="normal" in="SourceGraphic" in2="effect1_dropShadow_106_2830" result="shape"/>
</filter>
<filter id="filter2_d_106_2830" x="434" y="239" width="133.097" height="96.7273" filterUnits="userSpaceOnUse" color-interpolation-filters="sRGB">
<feFlood flood-opacity="0" result="BackgroundImageFix"/>
<feColorMatrix in="SourceAlpha" type="matrix" values="0 0 0 0 0 0 0 0 0 0 0 0 0 0 0 0 0 0 127 0" result="hardAlpha"/>
<feOffset dy="3"/>
<feGaussianBlur stdDeviation="2.5"/>
<feColorMatrix type="matrix" values="0 0 0 0 0.512977 0 0 0 0 0.512977 0 0 0 0 0.659505 0 0 0 0.15 0"/>
<feBlend mode="normal" in2="BackgroundImageFix" result="effect1_dropShadow_106_2830"/>
<feBlend mode="normal" in="SourceGraphic" in2="effect1_dropShadow_106_2830" result="shape"/>
</filter>
<filter id="filter3_d_106_2830" x="434" y="368" width="133.097" height="96.7273" filterUnits="userSpaceOnUse" color-interpolation-filters="sRGB">
<feFlood flood-opacity="0" result="BackgroundImageFix"/>
<feColorMatrix in="SourceAlpha" type="matrix" values="0 0 0 0 0 0 0 0 0 0 0 0 0 0 0 0 0 0 127 0" result="hardAlpha"/>
<feOffset dy="3"/>
<feGaussianBlur stdDeviation="2.5"/>
<feColorMatrix type="matrix" values="0 0 0 0 0.512977 0 0 0 0 0.512977 0 0 0 0 0.659505 0 0 0 0.15 0"/>
<feBlend mode="normal" in2="BackgroundImageFix" result="effect1_dropShadow_106_2830"/>
<feBlend mode="normal" in="SourceGraphic" in2="effect1_dropShadow_106_2830" result="shape"/>
</filter>
</defs>
</svg>
